<?xml version="1.0" encoding="UTF-8"?>
<svg width="61px" height="40px" viewBox="0 0 61 40" version="1.1" xmlns="http://www.w3.org/2000/svg" xmlns:xlink="http://www.w3.org/1999/xlink">
    <!-- Generator: Sketch 64 (93537) - https://sketch.com -->
    <title>centers</title>
    <desc>Created with Sketch.</desc>
    <g id="admin" stroke="none" stroke-width="1" fill="none" fill-rule="evenodd">
        <g id="Home-Hover-5" transform="translate(-125.000000, -449.000000)" fill="#464747">
            <g id="centers" transform="translate(125.000000, 449.000000)">
                <path d="M30.2235323,5.20218789e-14 C47.1736613,5.20218789e-14 60.4500161,5.61895238 60.4500161,12.7959048 L60.449,12.834 L60.449,26.542 L60.4500161,26.542619 L60.4500161,27.2454762 C60.4500161,32.4915238 53.4389516,37.0054286 42.1578871,39.0261429 L41.3235645,39.1745238 L41.3235645,23.2958095 L41.9060161,23.190381 C46.0073713,22.4571809 49.5700027,21.3478152 52.3678698,19.9996058 C46.8834204,17.375053 38.7428748,15.8291238 30.2247129,15.8291238 C23.0286806,15.8291238 16.1238742,16.9087905 10.7834226,18.8670286 C9.82108797,19.2192067 8.91716538,19.597879 8.08034927,19.9987322 C10.8788373,21.3477553 14.4415503,22.4571611 18.5430161,23.190381 L19.1254677,23.2958095 L19.1254677,39.1745238 L18.2911452,39.0261429 C7.01008065,37.0054286 0.000983870967,32.4915238 0.000983870967,27.2454762 L-4.87069166e-13,12.7959048 C0.000983870967,5.61895238 13.275371,5.20218789e-14 30.2235323,5.20218789e-14 Z M11.2556621,22.8196186 L11.2553391,35.7584974 C13.187047,36.4413279 15.3539121,37.0262273 17.7106613,37.4857143 L17.7106613,24.4672381 C15.3572668,24.0225718 13.1970072,23.4678236 11.2556621,22.8196186 Z M42.7403387,24.4672381 L42.7403387,37.4857143 C45.0434193,37.0365102 47.1653469,36.4674441 49.0637176,35.8041933 L49.0639652,22.8629747 C47.1566026,23.4925854 45.0406795,24.0325179 42.7403387,24.4672381 Z M50.4811463,22.3644105 L50.4813876,35.2749818 C52.7311297,34.3780714 54.6066696,33.3413576 56.0225007,32.2166178 L56.0222671,19.5712652 C54.5172819,20.6092441 52.6560338,21.5494342 50.4811463,22.3644105 Z M4.42474282,19.5690026 L4.42467104,32.2154945 C5.81331838,33.3190048 7.64457034,34.3378063 9.8378799,35.2230059 L9.83845717,22.3151983 C7.71792335,21.5110664 5.89998306,20.5870464 4.42474282,19.5690026 Z M59.0322581,27.2454762 L59.0333528,16.7676162 C58.5971769,17.3558739 58.0640308,17.9256362 57.4391579,18.4735292 L57.4385506,30.8925558 C58.4744842,29.7265457 59.0332419,28.4943855 59.0332419,27.2454762 L59.0322581,27.2454762 Z M1.41585691,16.7656214 L1.41677419,27.2454762 L1.41579032,27.2454762 C1.41579032,28.4936685 1.9737381,29.725131 3.00838971,30.8905477 L3.00760861,18.4703045 C2.38369484,17.9227813 1.85137142,17.3534318 1.41585691,16.7656214 Z M4.42509682,7.81435823 L4.42543158,17.7673217 C5.06057679,18.2720045 5.78828503,18.7589377 6.60084662,19.2234373 C7.58477069,18.7057182 8.66904368,18.2202596 9.83744269,17.7734009 L9.83796994,4.83509839 C7.6587747,5.70731171 5.82179849,6.71333479 4.42509682,7.81435823 Z M50.4804116,4.78322576 L50.4813728,17.7184556 C51.6874479,18.1764867 52.8134586,18.6791445 53.8470856,19.2239008 C54.6591107,18.7599484 55.3865704,18.273308 56.0215739,17.7689318 L56.0218715,7.81276833 C54.5976022,6.69047436 52.7158303,5.66692262 50.4804116,4.78322576 Z M11.2551872,4.30368163 L11.2544134,17.2641905 C13.2391621,16.5946662 15.4093038,16.0378372 17.7089935,15.6023637 L17.7092033,2.57741255 C15.370224,3.03773859 13.1996081,3.62079136 11.2551872,4.30368163 Z M42.7401094,2.57760924 L42.7405509,15.5924621 C44.9965589,16.0188369 47.1193082,16.5620664 49.0640863,17.2129744 L49.0638414,4.25839927 C47.1529358,3.5950896 45.0270133,3.02769603 42.7401094,2.57760924 Z M57.4395497,9.13034684 L57.4396637,16.4427487 C58.4641799,15.2889778 59.0215996,14.0703552 59.0330616,12.8347903 L59.0322581,12.7959048 L59.0332419,12.7959048 C59.0332419,11.5207978 58.470373,10.2864208 57.4395497,9.13034684 Z M1.41579032,12.7959048 L1.41677419,12.7959048 L1.416,12.834 L1.42024484,12.9892217 C1.47468639,14.17113 2.02689325,15.3356658 3.00758715,16.440742 L3.00768329,9.13234589 C1.97801064,10.2878437 1.41579032,11.5215327 1.41579032,12.7959048 Z M19.1261334,2.31718553 L19.1261746,15.3520515 C21.1983508,15.0118589 23.3624314,14.7673902 25.5801296,14.6245827 L25.5805589,1.55888124 C23.3389645,1.7096673 21.1755421,1.96716399 19.1261334,2.31718553 Z M34.868952,1.55900964 L34.8687923,14.621648 C37.0978753,14.7628899 39.25987,15.0054533 41.322896,15.3427957 L41.3220914,2.31718929 C39.2730927,1.96726517 37.1101112,1.709814 34.868952,1.55900964 Z M30.2235323,1.4037619 C29.1353228,1.4037619 28.0588697,1.42911076 26.9978198,1.47836499 L26.9973017,14.5475275 C28.0641533,14.5001392 29.1413382,14.4761238 30.2247129,14.4761238 C31.3115261,14.4761238 32.3882647,14.4996255 33.4515905,14.5459437 L33.4516228,1.4784576 C32.3898087,1.42914253 31.3125607,1.4037619 30.2235323,1.4037619 Z" id="Combined-Shape"></path>
            </g>
        </g>
    </g>
</svg>